<svg id="Layer_1" data-name="Layer 1" xmlns="http://www.w3.org/2000/svg" viewBox="0 0 14.7 22"><defs><style>.cls-1{fill:#0058a3;}</style></defs><title>finn-posisjon-logo</title><path class="cls-1" d="M1.2,11.55A7.13,7.13,0,0,1,0,6.59,7.18,7.18,0,0,1,4.62.51a7.37,7.37,0,0,1,10.08,7,7.53,7.53,0,0,1-1.1,4L8,21.67a0.65,0.65,0,0,1-1.13,0ZM11,7.44A3.8,3.8,0,0,0,7.31,3.63,3.78,3.78,0,0,0,3.65,7.44a3.31,3.31,0,0,0,.62,2,3.78,3.78,0,0,0,3.12,1.81,3.41,3.41,0,0,0,3.12-1.81A3.71,3.71,0,0,0,11,7.44Z" transform="translate(0 0)"/></svg>