<svg id="Layer_1" data-name="Layer 1" xmlns="http://www.w3.org/2000/svg" viewBox="0 0 15.5 22.5"><defs><style>.cls-1{fill:#f497bc;}.cls-1,.cls-2{stroke:#774a5b;stroke-miterlimit:10;stroke-width:0.5px;}.cls-2{fill:#af1e3d;}</style></defs><title>map-marker-hover</title><path class="cls-1" d="M8.5,0.28A7.45,7.45,0,0,1,14.37,11.2c-1.93,3.63-5.08,9.43-6.21,10.85a0.53,0.53,0,0,1-.83,0C6.21,20.64,3.06,14.84,1.13,11.2A7.45,7.45,0,0,1,7,.28q0.37,0,.75,0T8.5,0.28Z" transform="translate(0)"/><path class="cls-2" d="M7.75,10.54a3,3,0,0,1-3-3,3,3,0,0,1,3-3,3,3,0,0,1,3,3A3,3,0,0,1,7.75,10.54Z" transform="translate(0)"/></svg>