<?xml version="1.0" encoding="utf-8"?>
<!-- Generator: Adobe Illustrator 19.2.1, SVG Export Plug-In . SVG Version: 6.00 Build 0)  -->
<svg version="1.1" id="Layer_1" xmlns="http://www.w3.org/2000/svg" xmlns:xlink="http://www.w3.org/1999/xlink" x="0px" y="0px"
	 viewBox="0 0 16 23.2" style="enable-background:new 0 0 16 23.2;" xml:space="preserve">
<style type="text/css">
	.st0{fill:#FCFCFC;stroke:#606060;stroke-width:0.5;stroke-miterlimit:10;}
	.st1{fill:#E30041;stroke:#606060;stroke-width:0.5;stroke-miterlimit:10;}
</style>
<title>finn-posisjon-logo</title>
<path class="st0" d="M15.1,5.1c-1.5-3.8-5.9-5.7-9.8-4.2c-2.6,1-4.5,3.5-4.7,6.2c-0.2,1.8,0.2,3.7,1.2,5.1l5.8,10.3
	c0,0.1,0.1,0.1,0.2,0.2c0.3,0.2,0.7,0.1,0.9-0.2l5.7-10.4c0.7-1.2,1.1-2.7,1.1-4.1C15.6,7,15.5,6,15.1,5.1z"/>
<path class="st1" d="M8.1,10.6c-1.7,0-3-1.3-3-3s1.3-3,3-3s3,1.3,3,3S9.7,10.6,8.1,10.6z"/>
</svg>
