<?xml version="1.0" encoding="utf-8"?>
<!-- Generator: Adobe Illustrator 19.2.1, SVG Export Plug-In . SVG Version: 6.00 Build 0)  -->
<svg version="1.1" id="Layer_1" xmlns="http://www.w3.org/2000/svg" xmlns:xlink="http://www.w3.org/1999/xlink" x="0px" y="0px"
	 viewBox="0 0 16 23.2" style="enable-background:new 0 0 16 23.2;" xml:space="preserve">
<style type="text/css">
	.st0{fill:#E3E3E3;stroke:#BCBCBC;stroke-miterlimit:10;}
</style>
<title>finn-posisjon-logo</title>
<path class="st0" d="M14.8,5.2C13.3,1.5,9-0.4,5.2,1.1c-2.6,1-4.4,3.4-4.6,6.1c-0.2,1.8,0.2,3.6,1.2,5l5.7,10.1
	c0,0.1,0.1,0.1,0.2,0.2c0.3,0.2,0.7,0.1,0.9-0.2l5.6-10.2c0.7-1.2,1.1-2.6,1.1-4C15.3,7.1,15.2,6.1,14.8,5.2z M8,11.3
	c-1.9,0-3.5-1.5-3.5-3.5S6.1,4.3,8,4.3s3.5,1.5,3.5,3.5S9.9,11.3,8,11.3z"/>
</svg>
